%TF.GenerationSoftware,KiCad,Pcbnew,9.0.4*%
%TF.CreationDate,2026-04-17T15:31:34-06:00*%
%TF.ProjectId,open-string,6f70656e-2d73-4747-9269-6e672e6b6963,rev?*%
%TF.SameCoordinates,Original*%
%TF.FileFunction,Copper,L1,Top*%
%TF.FilePolarity,Positive*%
%FSLAX46Y46*%
G04 Gerber Fmt 4.6, Leading zero omitted, Abs format (unit mm)*
G04 Created by KiCad (PCBNEW 9.0.4) date 2026-04-17 15:31:34*
%MOMM*%
%LPD*%
G01*
G04 APERTURE LIST*
G04 Aperture macros list*
%AMRoundRect*
0 Rectangle with rounded corners*
0 $1 Rounding radius*
0 $2 $3 $4 $5 $6 $7 $8 $9 X,Y pos of 4 corners*
0 Add a 4 corners polygon primitive as box body*
4,1,4,$2,$3,$4,$5,$6,$7,$8,$9,$2,$3,0*
0 Add four circle primitives for the rounded corners*
1,1,$1+$1,$2,$3*
1,1,$1+$1,$4,$5*
1,1,$1+$1,$6,$7*
1,1,$1+$1,$8,$9*
0 Add four rect primitives between the rounded corners*
20,1,$1+$1,$2,$3,$4,$5,0*
20,1,$1+$1,$4,$5,$6,$7,0*
20,1,$1+$1,$6,$7,$8,$9,0*
20,1,$1+$1,$8,$9,$2,$3,0*%
G04 Aperture macros list end*
%TA.AperFunction,SMDPad,CuDef*%
%ADD10RoundRect,0.100000X-0.712500X-0.100000X0.712500X-0.100000X0.712500X0.100000X-0.712500X0.100000X0*%
%TD*%
%TA.AperFunction,SMDPad,CuDef*%
%ADD11C,1.500000*%
%TD*%
%TA.AperFunction,ComponentPad*%
%ADD12R,2.000000X2.000000*%
%TD*%
%TA.AperFunction,ViaPad*%
%ADD13C,0.800000*%
%TD*%
%TA.AperFunction,Conductor*%
%ADD14C,0.250000*%
%TD*%
%TA.AperFunction,Conductor*%
%ADD15C,0.508000*%
%TD*%
G04 APERTURE END LIST*
D10*
%TO.P,U10,1,IO*%
%TO.N,Net-(U1-IO)*%
X391887500Y-297025000D03*
%TO.P,U10,2,NC*%
%TO.N,unconnected-(U10-NC-Pad2)*%
X391887500Y-297675000D03*
%TO.P,U10,3,NC*%
%TO.N,unconnected-(U10-NC-Pad3)*%
X391887500Y-298325000D03*
%TO.P,U10,4,GND*%
%TO.N,Net-(U1-GND)*%
X391887500Y-298975000D03*
%TO.P,U10,5,NC*%
%TO.N,unconnected-(U10-NC-Pad5)*%
X396112500Y-298975000D03*
%TO.P,U10,6,PIOA*%
%TO.N,Net-(U10-PIOA)*%
X396112500Y-298325000D03*
%TO.P,U10,7,PIOB*%
%TO.N,Net-(U10-PIOB)*%
X396112500Y-297675000D03*
%TO.P,U10,8,VDD*%
%TO.N,Net-(U1-VDD)*%
X396112500Y-297025000D03*
%TD*%
%TO.P,U14,1,IO*%
%TO.N,Net-(U1-IO)*%
X471887500Y-297025000D03*
%TO.P,U14,2,NC*%
%TO.N,unconnected-(U14-NC-Pad2)*%
X471887500Y-297675000D03*
%TO.P,U14,3,NC*%
%TO.N,unconnected-(U14-NC-Pad3)*%
X471887500Y-298325000D03*
%TO.P,U14,4,GND*%
%TO.N,Net-(U1-GND)*%
X471887500Y-298975000D03*
%TO.P,U14,5,NC*%
%TO.N,unconnected-(U14-NC-Pad5)*%
X476112500Y-298975000D03*
%TO.P,U14,6,PIOA*%
%TO.N,Net-(U14-PIOA)*%
X476112500Y-298325000D03*
%TO.P,U14,7,PIOB*%
%TO.N,Net-(U13-PIOA)*%
X476112500Y-297675000D03*
%TO.P,U14,8,VDD*%
%TO.N,Net-(U1-VDD)*%
X476112500Y-297025000D03*
%TD*%
%TO.P,U1,1,IO*%
%TO.N,Net-(U1-IO)*%
X211887500Y-297025000D03*
%TO.P,U1,2,NC*%
%TO.N,unconnected-(U1-NC-Pad2)*%
X211887500Y-297675000D03*
%TO.P,U1,3,NC*%
%TO.N,unconnected-(U1-NC-Pad3)*%
X211887500Y-298325000D03*
%TO.P,U1,4,GND*%
%TO.N,Net-(U1-GND)*%
X211887500Y-298975000D03*
%TO.P,U1,5,NC*%
%TO.N,unconnected-(U1-NC-Pad5)*%
X216112500Y-298975000D03*
%TO.P,U1,6,PIOA*%
%TO.N,Net-(U1-PIOA)*%
X216112500Y-298325000D03*
%TO.P,U1,7,PIOB*%
%TO.N,Net-(U1-PIOB)*%
X216112500Y-297675000D03*
%TO.P,U1,8,VDD*%
%TO.N,Net-(U1-VDD)*%
X216112500Y-297025000D03*
%TD*%
D11*
%TO.P,TP3,1,1*%
%TO.N,Net-(U1-VDD)*%
X207000000Y-292000000D03*
%TD*%
D10*
%TO.P,U5,1,IO*%
%TO.N,Net-(U1-IO)*%
X291887500Y-297025000D03*
%TO.P,U5,2,NC*%
%TO.N,unconnected-(U5-NC-Pad2)*%
X291887500Y-297675000D03*
%TO.P,U5,3,NC*%
%TO.N,unconnected-(U5-NC-Pad3)*%
X291887500Y-298325000D03*
%TO.P,U5,4,GND*%
%TO.N,Net-(U1-GND)*%
X291887500Y-298975000D03*
%TO.P,U5,5,NC*%
%TO.N,unconnected-(U5-NC-Pad5)*%
X296112500Y-298975000D03*
%TO.P,U5,6,PIOA*%
%TO.N,Net-(U5-PIOA)*%
X296112500Y-298325000D03*
%TO.P,U5,7,PIOB*%
%TO.N,Net-(U4-PIOA)*%
X296112500Y-297675000D03*
%TO.P,U5,8,VDD*%
%TO.N,Net-(U1-VDD)*%
X296112500Y-297025000D03*
%TD*%
D11*
%TO.P,TP4,1,1*%
%TO.N,Net-(U1-PIOB)*%
X207000000Y-300000000D03*
%TD*%
D10*
%TO.P,U18,1,IO*%
%TO.N,Net-(U1-IO)*%
X551887500Y-297025000D03*
%TO.P,U18,2,NC*%
%TO.N,unconnected-(U18-NC-Pad2)*%
X551887500Y-297675000D03*
%TO.P,U18,3,NC*%
%TO.N,unconnected-(U18-NC-Pad3)*%
X551887500Y-298325000D03*
%TO.P,U18,4,GND*%
%TO.N,Net-(U1-GND)*%
X551887500Y-298975000D03*
%TO.P,U18,5,NC*%
%TO.N,unconnected-(U18-NC-Pad5)*%
X556112500Y-298975000D03*
%TO.P,U18,6,PIOA*%
%TO.N,Net-(U18-PIOA)*%
X556112500Y-298325000D03*
%TO.P,U18,7,PIOB*%
%TO.N,Net-(U17-PIOA)*%
X556112500Y-297675000D03*
%TO.P,U18,8,VDD*%
%TO.N,Net-(U1-VDD)*%
X556112500Y-297025000D03*
%TD*%
%TO.P,U2,1,IO*%
%TO.N,Net-(U1-IO)*%
X231887500Y-297025000D03*
%TO.P,U2,2,NC*%
%TO.N,unconnected-(U2-NC-Pad2)*%
X231887500Y-297675000D03*
%TO.P,U2,3,NC*%
%TO.N,unconnected-(U2-NC-Pad3)*%
X231887500Y-298325000D03*
%TO.P,U2,4,GND*%
%TO.N,Net-(U1-GND)*%
X231887500Y-298975000D03*
%TO.P,U2,5,NC*%
%TO.N,unconnected-(U2-NC-Pad5)*%
X236112500Y-298975000D03*
%TO.P,U2,6,PIOA*%
%TO.N,Net-(U2-PIOA)*%
X236112500Y-298325000D03*
%TO.P,U2,7,PIOB*%
%TO.N,Net-(U1-PIOA)*%
X236112500Y-297675000D03*
%TO.P,U2,8,VDD*%
%TO.N,Net-(U1-VDD)*%
X236112500Y-297025000D03*
%TD*%
%TO.P,U9,1,IO*%
%TO.N,Net-(U1-IO)*%
X371887500Y-297025000D03*
%TO.P,U9,2,NC*%
%TO.N,unconnected-(U9-NC-Pad2)*%
X371887500Y-297675000D03*
%TO.P,U9,3,NC*%
%TO.N,unconnected-(U9-NC-Pad3)*%
X371887500Y-298325000D03*
%TO.P,U9,4,GND*%
%TO.N,Net-(U1-GND)*%
X371887500Y-298975000D03*
%TO.P,U9,5,NC*%
%TO.N,unconnected-(U9-NC-Pad5)*%
X376112500Y-298975000D03*
%TO.P,U9,6,PIOA*%
%TO.N,Net-(U10-PIOB)*%
X376112500Y-298325000D03*
%TO.P,U9,7,PIOB*%
%TO.N,Net-(U8-PIOA)*%
X376112500Y-297675000D03*
%TO.P,U9,8,VDD*%
%TO.N,Net-(U1-VDD)*%
X376112500Y-297025000D03*
%TD*%
%TO.P,U12,1,IO*%
%TO.N,Net-(U1-IO)*%
X431887500Y-297025000D03*
%TO.P,U12,2,NC*%
%TO.N,unconnected-(U12-NC-Pad2)*%
X431887500Y-297675000D03*
%TO.P,U12,3,NC*%
%TO.N,unconnected-(U12-NC-Pad3)*%
X431887500Y-298325000D03*
%TO.P,U12,4,GND*%
%TO.N,Net-(U1-GND)*%
X431887500Y-298975000D03*
%TO.P,U12,5,NC*%
%TO.N,unconnected-(U12-NC-Pad5)*%
X436112500Y-298975000D03*
%TO.P,U12,6,PIOA*%
%TO.N,Net-(U12-PIOA)*%
X436112500Y-298325000D03*
%TO.P,U12,7,PIOB*%
%TO.N,Net-(U11-PIOA)*%
X436112500Y-297675000D03*
%TO.P,U12,8,VDD*%
%TO.N,Net-(U1-VDD)*%
X436112500Y-297025000D03*
%TD*%
D11*
%TO.P,TP6,1,1*%
%TO.N,Net-(U1-GND)*%
X207000000Y-304000000D03*
%TD*%
D12*
%TO.P,Data1,1,1*%
%TO.N,Net-(U1-IO)*%
X202000000Y-296000000D03*
%TD*%
D11*
%TO.P,TP8,1,1*%
%TO.N,Net-(U20-PIOA)*%
X588333333Y-299666667D03*
%TD*%
%TO.P,TP5,1,1*%
%TO.N,Net-(U1-IO)*%
X207000000Y-296000000D03*
%TD*%
D10*
%TO.P,U20,1,IO*%
%TO.N,Net-(U1-IO)*%
X591887500Y-297025000D03*
%TO.P,U20,2,NC*%
%TO.N,unconnected-(U20-NC-Pad2)*%
X591887500Y-297675000D03*
%TO.P,U20,3,NC*%
%TO.N,unconnected-(U20-NC-Pad3)*%
X591887500Y-298325000D03*
%TO.P,U20,4,GND*%
%TO.N,Net-(U1-GND)*%
X591887500Y-298975000D03*
%TO.P,U20,5,NC*%
%TO.N,unconnected-(U20-NC-Pad5)*%
X596112500Y-298975000D03*
%TO.P,U20,6,PIOA*%
%TO.N,Net-(U20-PIOA)*%
X596112500Y-298325000D03*
%TO.P,U20,7,PIOB*%
%TO.N,Net-(U19-PIOA)*%
X596112500Y-297675000D03*
%TO.P,U20,8,VDD*%
%TO.N,Net-(U1-VDD)*%
X596112500Y-297025000D03*
%TD*%
%TO.P,U4,1,IO*%
%TO.N,Net-(U1-IO)*%
X271887500Y-297025000D03*
%TO.P,U4,2,NC*%
%TO.N,unconnected-(U4-NC-Pad2)*%
X271887500Y-297675000D03*
%TO.P,U4,3,NC*%
%TO.N,unconnected-(U4-NC-Pad3)*%
X271887500Y-298325000D03*
%TO.P,U4,4,GND*%
%TO.N,Net-(U1-GND)*%
X271887500Y-298975000D03*
%TO.P,U4,5,NC*%
%TO.N,unconnected-(U4-NC-Pad5)*%
X276112500Y-298975000D03*
%TO.P,U4,6,PIOA*%
%TO.N,Net-(U4-PIOA)*%
X276112500Y-298325000D03*
%TO.P,U4,7,PIOB*%
%TO.N,Net-(U3-PIOA)*%
X276112500Y-297675000D03*
%TO.P,U4,8,VDD*%
%TO.N,Net-(U1-VDD)*%
X276112500Y-297025000D03*
%TD*%
%TO.P,U19,1,IO*%
%TO.N,Net-(U1-IO)*%
X571887500Y-297025000D03*
%TO.P,U19,2,NC*%
%TO.N,unconnected-(U19-NC-Pad2)*%
X571887500Y-297675000D03*
%TO.P,U19,3,NC*%
%TO.N,unconnected-(U19-NC-Pad3)*%
X571887500Y-298325000D03*
%TO.P,U19,4,GND*%
%TO.N,Net-(U1-GND)*%
X571887500Y-298975000D03*
%TO.P,U19,5,NC*%
%TO.N,unconnected-(U19-NC-Pad5)*%
X576112500Y-298975000D03*
%TO.P,U19,6,PIOA*%
%TO.N,Net-(U19-PIOA)*%
X576112500Y-298325000D03*
%TO.P,U19,7,PIOB*%
%TO.N,Net-(U18-PIOA)*%
X576112500Y-297675000D03*
%TO.P,U19,8,VDD*%
%TO.N,Net-(U1-VDD)*%
X576112500Y-297025000D03*
%TD*%
D12*
%TO.P,GND2,1,1*%
%TO.N,Net-(U1-GND)*%
X602000000Y-304000000D03*
%TD*%
%TO.P,Data2,1,1*%
%TO.N,Net-(U1-IO)*%
X602000000Y-296000000D03*
%TD*%
D10*
%TO.P,U13,1,IO*%
%TO.N,Net-(U1-IO)*%
X451887500Y-297025000D03*
%TO.P,U13,2,NC*%
%TO.N,unconnected-(U13-NC-Pad2)*%
X451887500Y-297675000D03*
%TO.P,U13,3,NC*%
%TO.N,unconnected-(U13-NC-Pad3)*%
X451887500Y-298325000D03*
%TO.P,U13,4,GND*%
%TO.N,Net-(U1-GND)*%
X451887500Y-298975000D03*
%TO.P,U13,5,NC*%
%TO.N,unconnected-(U13-NC-Pad5)*%
X456112500Y-298975000D03*
%TO.P,U13,6,PIOA*%
%TO.N,Net-(U13-PIOA)*%
X456112500Y-298325000D03*
%TO.P,U13,7,PIOB*%
%TO.N,Net-(U12-PIOA)*%
X456112500Y-297675000D03*
%TO.P,U13,8,VDD*%
%TO.N,Net-(U1-VDD)*%
X456112500Y-297025000D03*
%TD*%
%TO.P,U8,1,IO*%
%TO.N,Net-(U1-IO)*%
X351887500Y-297025000D03*
%TO.P,U8,2,NC*%
%TO.N,unconnected-(U8-NC-Pad2)*%
X351887500Y-297675000D03*
%TO.P,U8,3,NC*%
%TO.N,unconnected-(U8-NC-Pad3)*%
X351887500Y-298325000D03*
%TO.P,U8,4,GND*%
%TO.N,Net-(U1-GND)*%
X351887500Y-298975000D03*
%TO.P,U8,5,NC*%
%TO.N,unconnected-(U8-NC-Pad5)*%
X356112500Y-298975000D03*
%TO.P,U8,6,PIOA*%
%TO.N,Net-(U8-PIOA)*%
X356112500Y-298325000D03*
%TO.P,U8,7,PIOB*%
%TO.N,Net-(U7-PIOA)*%
X356112500Y-297675000D03*
%TO.P,U8,8,VDD*%
%TO.N,Net-(U1-VDD)*%
X356112500Y-297025000D03*
%TD*%
%TO.P,U6,1,IO*%
%TO.N,Net-(U1-IO)*%
X311887500Y-297025000D03*
%TO.P,U6,2,NC*%
%TO.N,unconnected-(U6-NC-Pad2)*%
X311887500Y-297675000D03*
%TO.P,U6,3,NC*%
%TO.N,unconnected-(U6-NC-Pad3)*%
X311887500Y-298325000D03*
%TO.P,U6,4,GND*%
%TO.N,Net-(U1-GND)*%
X311887500Y-298975000D03*
%TO.P,U6,5,NC*%
%TO.N,unconnected-(U6-NC-Pad5)*%
X316112500Y-298975000D03*
%TO.P,U6,6,PIOA*%
%TO.N,Net-(U6-PIOA)*%
X316112500Y-298325000D03*
%TO.P,U6,7,PIOB*%
%TO.N,Net-(U5-PIOA)*%
X316112500Y-297675000D03*
%TO.P,U6,8,VDD*%
%TO.N,Net-(U1-VDD)*%
X316112500Y-297025000D03*
%TD*%
%TO.P,U16,1,IO*%
%TO.N,Net-(U1-IO)*%
X511887500Y-297025000D03*
%TO.P,U16,2,NC*%
%TO.N,unconnected-(U16-NC-Pad2)*%
X511887500Y-297675000D03*
%TO.P,U16,3,NC*%
%TO.N,unconnected-(U16-NC-Pad3)*%
X511887500Y-298325000D03*
%TO.P,U16,4,GND*%
%TO.N,Net-(U1-GND)*%
X511887500Y-298975000D03*
%TO.P,U16,5,NC*%
%TO.N,unconnected-(U16-NC-Pad5)*%
X516112500Y-298975000D03*
%TO.P,U16,6,PIOA*%
%TO.N,Net-(U16-PIOA)*%
X516112500Y-298325000D03*
%TO.P,U16,7,PIOB*%
%TO.N,Net-(U15-PIOA)*%
X516112500Y-297675000D03*
%TO.P,U16,8,VDD*%
%TO.N,Net-(U1-VDD)*%
X516112500Y-297025000D03*
%TD*%
D11*
%TO.P,TP1,1,1*%
%TO.N,Net-(U1-IO)*%
X588416667Y-296083333D03*
%TD*%
D12*
%TO.P,VDD2,1,1*%
%TO.N,Net-(U1-VDD)*%
X602000000Y-292000000D03*
%TD*%
D10*
%TO.P,U7,1,IO*%
%TO.N,Net-(U1-IO)*%
X331887500Y-297025000D03*
%TO.P,U7,2,NC*%
%TO.N,unconnected-(U7-NC-Pad2)*%
X331887500Y-297675000D03*
%TO.P,U7,3,NC*%
%TO.N,unconnected-(U7-NC-Pad3)*%
X331887500Y-298325000D03*
%TO.P,U7,4,GND*%
%TO.N,Net-(U1-GND)*%
X331887500Y-298975000D03*
%TO.P,U7,5,NC*%
%TO.N,unconnected-(U7-NC-Pad5)*%
X336112500Y-298975000D03*
%TO.P,U7,6,PIOA*%
%TO.N,Net-(U7-PIOA)*%
X336112500Y-298325000D03*
%TO.P,U7,7,PIOB*%
%TO.N,Net-(U6-PIOA)*%
X336112500Y-297675000D03*
%TO.P,U7,8,VDD*%
%TO.N,Net-(U1-VDD)*%
X336112500Y-297025000D03*
%TD*%
D12*
%TO.P,GND1,1,1*%
%TO.N,Net-(U1-GND)*%
X202000000Y-304000000D03*
%TD*%
D10*
%TO.P,U3,1,IO*%
%TO.N,Net-(U1-IO)*%
X251887500Y-297025000D03*
%TO.P,U3,2,NC*%
%TO.N,unconnected-(U3-NC-Pad2)*%
X251887500Y-297675000D03*
%TO.P,U3,3,NC*%
%TO.N,unconnected-(U3-NC-Pad3)*%
X251887500Y-298325000D03*
%TO.P,U3,4,GND*%
%TO.N,Net-(U1-GND)*%
X251887500Y-298975000D03*
%TO.P,U3,5,NC*%
%TO.N,unconnected-(U3-NC-Pad5)*%
X256112500Y-298975000D03*
%TO.P,U3,6,PIOA*%
%TO.N,Net-(U3-PIOA)*%
X256112500Y-298325000D03*
%TO.P,U3,7,PIOB*%
%TO.N,Net-(U2-PIOA)*%
X256112500Y-297675000D03*
%TO.P,U3,8,VDD*%
%TO.N,Net-(U1-VDD)*%
X256112500Y-297025000D03*
%TD*%
D12*
%TO.P,PIOA/B1,1,1*%
%TO.N,Net-(U1-PIOB)*%
X202000000Y-300000000D03*
%TD*%
D11*
%TO.P,TP2,1,1*%
%TO.N,Net-(U1-GND)*%
X588250000Y-303250000D03*
%TD*%
%TO.P,TP7,1,1*%
%TO.N,Net-(U1-VDD)*%
X588500000Y-292500000D03*
%TD*%
D12*
%TO.P,VDD1,1,1*%
%TO.N,Net-(U1-VDD)*%
X202000000Y-292000000D03*
%TD*%
D10*
%TO.P,U15,1,IO*%
%TO.N,Net-(U1-IO)*%
X491887500Y-297025000D03*
%TO.P,U15,2,NC*%
%TO.N,unconnected-(U15-NC-Pad2)*%
X491887500Y-297675000D03*
%TO.P,U15,3,NC*%
%TO.N,unconnected-(U15-NC-Pad3)*%
X491887500Y-298325000D03*
%TO.P,U15,4,GND*%
%TO.N,Net-(U1-GND)*%
X491887500Y-298975000D03*
%TO.P,U15,5,NC*%
%TO.N,unconnected-(U15-NC-Pad5)*%
X496112500Y-298975000D03*
%TO.P,U15,6,PIOA*%
%TO.N,Net-(U15-PIOA)*%
X496112500Y-298325000D03*
%TO.P,U15,7,PIOB*%
%TO.N,Net-(U14-PIOA)*%
X496112500Y-297675000D03*
%TO.P,U15,8,VDD*%
%TO.N,Net-(U1-VDD)*%
X496112500Y-297025000D03*
%TD*%
%TO.P,U11,1,IO*%
%TO.N,Net-(U1-IO)*%
X411887500Y-297025000D03*
%TO.P,U11,2,NC*%
%TO.N,unconnected-(U11-NC-Pad2)*%
X411887500Y-297675000D03*
%TO.P,U11,3,NC*%
%TO.N,unconnected-(U11-NC-Pad3)*%
X411887500Y-298325000D03*
%TO.P,U11,4,GND*%
%TO.N,Net-(U1-GND)*%
X411887500Y-298975000D03*
%TO.P,U11,5,NC*%
%TO.N,unconnected-(U11-NC-Pad5)*%
X416112500Y-298975000D03*
%TO.P,U11,6,PIOA*%
%TO.N,Net-(U11-PIOA)*%
X416112500Y-298325000D03*
%TO.P,U11,7,PIOB*%
%TO.N,Net-(U10-PIOA)*%
X416112500Y-297675000D03*
%TO.P,U11,8,VDD*%
%TO.N,Net-(U1-VDD)*%
X416112500Y-297025000D03*
%TD*%
%TO.P,U17,1,IO*%
%TO.N,Net-(U1-IO)*%
X531887500Y-297025000D03*
%TO.P,U17,2,NC*%
%TO.N,unconnected-(U17-NC-Pad2)*%
X531887500Y-297675000D03*
%TO.P,U17,3,NC*%
%TO.N,unconnected-(U17-NC-Pad3)*%
X531887500Y-298325000D03*
%TO.P,U17,4,GND*%
%TO.N,Net-(U1-GND)*%
X531887500Y-298975000D03*
%TO.P,U17,5,NC*%
%TO.N,unconnected-(U17-NC-Pad5)*%
X536112500Y-298975000D03*
%TO.P,U17,6,PIOA*%
%TO.N,Net-(U17-PIOA)*%
X536112500Y-298325000D03*
%TO.P,U17,7,PIOB*%
%TO.N,Net-(U16-PIOA)*%
X536112500Y-297675000D03*
%TO.P,U17,8,VDD*%
%TO.N,Net-(U1-VDD)*%
X536112500Y-297025000D03*
%TD*%
D12*
%TO.P,PIOA/B2,1,1*%
%TO.N,Net-(U20-PIOA)*%
X602000000Y-300000000D03*
%TD*%
D13*
%TO.N,Net-(U1-IO)*%
X597000000Y-294000000D03*
X331112500Y-294000000D03*
X351000000Y-294000000D03*
X591000000Y-294000000D03*
X471112500Y-294000000D03*
X511112500Y-294000000D03*
X491112500Y-294000000D03*
X251000000Y-294000000D03*
X215000000Y-294000000D03*
X271112500Y-294000000D03*
X411112500Y-294000000D03*
X231000000Y-294000000D03*
X571112500Y-294000000D03*
X391112500Y-294000000D03*
X291000000Y-294000000D03*
X551112500Y-294000000D03*
X451112500Y-294000000D03*
X431112500Y-294000000D03*
X311112500Y-294043750D03*
X531112500Y-294000000D03*
X371112500Y-294000000D03*
%TO.N,Net-(U1-PIOB)*%
X220000000Y-303000000D03*
X209000000Y-303000000D03*
%TO.N,Net-(U20-PIOA)*%
X590750000Y-301750000D03*
%TO.N,Net-(U10-PIOB)*%
X379000000Y-301000000D03*
X400000000Y-301000000D03*
X398000000Y-301000000D03*
%TO.N,Net-(U1-PIOA)*%
X240000000Y-301000000D03*
X219000000Y-301000000D03*
%TO.N,Net-(U2-PIOA)*%
X259000000Y-303000000D03*
X239000000Y-303000000D03*
%TO.N,Net-(U3-PIOA)*%
X259000000Y-301000000D03*
X280000000Y-301000000D03*
%TO.N,Net-(U4-PIOA)*%
X279000000Y-303000000D03*
X300000000Y-303000000D03*
%TO.N,Net-(U5-PIOA)*%
X320000000Y-301000000D03*
X299000000Y-301000000D03*
%TO.N,Net-(U6-PIOA)*%
X340286328Y-303000000D03*
X319000000Y-303000000D03*
%TO.N,Net-(U7-PIOA)*%
X360000000Y-301000000D03*
X339000000Y-301000000D03*
%TO.N,Net-(U8-PIOA)*%
X380000000Y-303000000D03*
X359000000Y-303000000D03*
%TO.N,Net-(U10-PIOA)*%
X420000000Y-303000000D03*
X399000000Y-303000000D03*
%TO.N,Net-(U11-PIOA)*%
X419000000Y-301000000D03*
X440000000Y-301000000D03*
%TO.N,Net-(U12-PIOA)*%
X460000000Y-303000000D03*
X439000000Y-303000000D03*
%TO.N,Net-(U13-PIOA)*%
X480000000Y-301000000D03*
X459000000Y-301000000D03*
%TO.N,Net-(U14-PIOA)*%
X479000000Y-303000000D03*
X500000000Y-303000000D03*
%TO.N,Net-(U15-PIOA)*%
X520000000Y-301000000D03*
X499000000Y-301000000D03*
%TO.N,Net-(U16-PIOA)*%
X519000000Y-303000000D03*
X540000000Y-303000000D03*
%TO.N,Net-(U17-PIOA)*%
X539000000Y-301000000D03*
X560000000Y-301000000D03*
%TO.N,Net-(U18-PIOA)*%
X559000000Y-303000000D03*
X580000000Y-303000000D03*
%TO.N,Net-(U19-PIOA)*%
X594000000Y-301000000D03*
X579000000Y-301000000D03*
%TD*%
D14*
%TO.N,Net-(U1-IO)*%
X551112500Y-294000000D02*
X552000000Y-294887500D01*
X492000000Y-294887500D02*
X492000000Y-297025000D01*
X332000000Y-294887500D02*
X332000000Y-297025000D01*
X392000000Y-294887500D02*
X392000000Y-297025000D01*
X572000000Y-294887500D02*
X572000000Y-297025000D01*
X207000000Y-296000000D02*
X209000000Y-294000000D01*
X531112500Y-294000000D02*
X532000000Y-294887500D01*
X393112500Y-294887500D02*
X392000000Y-294887500D01*
X231887500Y-294887500D02*
X231887500Y-297025000D01*
X412000000Y-294887500D02*
X412000000Y-297025000D01*
X212000000Y-295000000D02*
X211000000Y-294000000D01*
X451112500Y-294000000D02*
X452000000Y-294887500D01*
X311112500Y-294043750D02*
X312000000Y-294931250D01*
X272000000Y-294887500D02*
X272000000Y-297025000D01*
X599000000Y-296000000D02*
X602000000Y-296000000D01*
X202000000Y-296000000D02*
X207000000Y-296000000D01*
X472000000Y-294887500D02*
X472000000Y-297025000D01*
X352000000Y-295000000D02*
X352000000Y-296912500D01*
X590916667Y-296083333D02*
X592000000Y-295000000D01*
X351000000Y-294000000D02*
X352000000Y-295000000D01*
X371112500Y-294000000D02*
X372000000Y-294887500D01*
X452000000Y-294887500D02*
X452000000Y-297025000D01*
X209000000Y-294000000D02*
X211000000Y-294000000D01*
X391112500Y-294000000D02*
X392000000Y-294887500D01*
X491112500Y-294000000D02*
X492000000Y-294887500D01*
X251887500Y-294887500D02*
X251887500Y-297025000D01*
X231000000Y-294000000D02*
X231887500Y-294887500D01*
X212000000Y-297000000D02*
X212000000Y-295000000D01*
X211887500Y-297025000D02*
X211975000Y-297025000D01*
X331112500Y-294000000D02*
X332000000Y-294887500D01*
X271112500Y-294000000D02*
X272000000Y-294887500D01*
X251000000Y-294000000D02*
X251887500Y-294887500D01*
X292000000Y-295000000D02*
X292000000Y-297000000D01*
X591887500Y-297025000D02*
X592000000Y-296912500D01*
X471112500Y-294000000D02*
X472000000Y-294887500D01*
X592000000Y-295000000D02*
X591000000Y-294000000D01*
X312000000Y-294931250D02*
X312000000Y-297068750D01*
X411112500Y-294000000D02*
X412000000Y-294887500D01*
X211975000Y-297025000D02*
X212000000Y-297000000D01*
X431112500Y-294000000D02*
X432000000Y-294887500D01*
X211000000Y-294000000D02*
X215000000Y-294000000D01*
X592000000Y-296912500D02*
X592000000Y-295000000D01*
X512000000Y-294887500D02*
X512000000Y-297025000D01*
X291000000Y-294000000D02*
X292000000Y-295000000D01*
X372000000Y-294887500D02*
X372000000Y-297025000D01*
X571112500Y-294000000D02*
X572000000Y-294887500D01*
X588416667Y-296083333D02*
X590916667Y-296083333D01*
X432000000Y-294887500D02*
X432000000Y-297025000D01*
X532000000Y-294887500D02*
X532000000Y-297025000D01*
X511112500Y-294000000D02*
X512000000Y-294887500D01*
X395000000Y-293000000D02*
X393112500Y-294887500D01*
X597000000Y-294000000D02*
X599000000Y-296000000D01*
X552000000Y-294887500D02*
X552000000Y-297025000D01*
%TO.N,Net-(U1-VDD)*%
X456112500Y-297025000D02*
X457975000Y-297025000D01*
X357975000Y-297025000D02*
X356112500Y-297025000D01*
D15*
X318000000Y-291000000D02*
X319000000Y-292000000D01*
X539000000Y-292000000D02*
X538000000Y-291000000D01*
D14*
X399000000Y-296000000D02*
X397975000Y-297025000D01*
D15*
X378000000Y-291000000D02*
X379000000Y-292000000D01*
D14*
X277975000Y-297025000D02*
X276112500Y-297025000D01*
X436112500Y-297025000D02*
X437975000Y-297025000D01*
D15*
X559000000Y-296000000D02*
X559000000Y-292000000D01*
X594000000Y-292000000D02*
X602000000Y-292000000D01*
X319000000Y-292000000D02*
X319000000Y-296000000D01*
X317000000Y-291000000D02*
X337000000Y-291000000D01*
D14*
X437975000Y-297025000D02*
X439000000Y-296000000D01*
X237975000Y-297025000D02*
X236112500Y-297025000D01*
X596000000Y-296912500D02*
X596000000Y-294000000D01*
D15*
X419000000Y-296000000D02*
X419000000Y-292000000D01*
X299000000Y-292000000D02*
X299000000Y-296000000D01*
D14*
X517975000Y-297025000D02*
X519000000Y-296000000D01*
X317975000Y-297025000D02*
X316000000Y-297025000D01*
D15*
X237000000Y-291000000D02*
X257000000Y-291000000D01*
X386000000Y-291000000D02*
X387000000Y-292000000D01*
X579000000Y-292000000D02*
X578000000Y-291000000D01*
X216996513Y-291175000D02*
X217171513Y-291000000D01*
X399000000Y-292000000D02*
X399000000Y-296000000D01*
D14*
X337975000Y-297025000D02*
X336112500Y-297025000D01*
X417975000Y-297025000D02*
X419000000Y-296000000D01*
D15*
X208911630Y-291171678D02*
X210996678Y-291171678D01*
D14*
X219000000Y-296000000D02*
X217975000Y-297025000D01*
D15*
X519000000Y-296000000D02*
X519000000Y-292000000D01*
D14*
X377975000Y-297025000D02*
X376112500Y-297025000D01*
D15*
X359000000Y-292000000D02*
X359000000Y-296000000D01*
D14*
X496000000Y-297025000D02*
X497862500Y-297025000D01*
D15*
X592000000Y-291000000D02*
X593000000Y-292000000D01*
X208083308Y-292000000D02*
X208911630Y-291171678D01*
X479000000Y-292000000D02*
X478000000Y-291000000D01*
D14*
X497862500Y-297025000D02*
X498887500Y-296000000D01*
X537975000Y-297025000D02*
X539000000Y-296000000D01*
D15*
X387000000Y-292000000D02*
X387000000Y-293000000D01*
X439000000Y-292000000D02*
X438000000Y-291000000D01*
X278000000Y-291000000D02*
X279000000Y-292000000D01*
X297000000Y-291000000D02*
X317000000Y-291000000D01*
D14*
X397975000Y-297025000D02*
X396112500Y-297025000D01*
X478000000Y-297000000D02*
X479000000Y-296000000D01*
D15*
X559000000Y-292000000D02*
X558000000Y-291000000D01*
D14*
X210996678Y-291171678D02*
X211000000Y-291175000D01*
D15*
X338000000Y-291000000D02*
X339000000Y-292000000D01*
X217171513Y-291000000D02*
X237000000Y-291000000D01*
D14*
X588500000Y-292500000D02*
X590500000Y-292500000D01*
X590500000Y-292500000D02*
X592000000Y-291000000D01*
X558000000Y-297000000D02*
X559000000Y-296000000D01*
X556112500Y-297025000D02*
X557975000Y-297025000D01*
D15*
X498887500Y-292000000D02*
X497887500Y-291000000D01*
D14*
X576112500Y-297025000D02*
X577975000Y-297025000D01*
D15*
X337000000Y-291000000D02*
X357000000Y-291000000D01*
X202000000Y-292000000D02*
X206000000Y-292000000D01*
D14*
X457975000Y-297025000D02*
X459000000Y-296000000D01*
D15*
X339000000Y-292000000D02*
X339000000Y-296000000D01*
X419000000Y-292000000D02*
X418000000Y-291000000D01*
X239000000Y-296000000D02*
X239000000Y-292000000D01*
X479000000Y-296000000D02*
X479000000Y-292000000D01*
D14*
X379000000Y-296000000D02*
X377975000Y-297025000D01*
D15*
X219000000Y-296000000D02*
X219000000Y-292175000D01*
X498887500Y-296000000D02*
X498887500Y-292000000D01*
X397000000Y-291000000D02*
X417000000Y-291000000D01*
D14*
X297975000Y-297025000D02*
X296112500Y-297025000D01*
D15*
X519000000Y-292000000D02*
X518000000Y-291000000D01*
X205999994Y-291999924D02*
X208083302Y-291999924D01*
D14*
X416112500Y-297025000D02*
X417975000Y-297025000D01*
D15*
X298000000Y-291000000D02*
X299000000Y-292000000D01*
X219000000Y-292175000D02*
X218000000Y-291175000D01*
D14*
X596000000Y-294000000D02*
X594000000Y-292000000D01*
X516112500Y-297025000D02*
X517975000Y-297025000D01*
X476112500Y-297025000D02*
X477975000Y-297025000D01*
X256112500Y-297025000D02*
X257975000Y-297025000D01*
X299000000Y-296000000D02*
X297975000Y-297025000D01*
D15*
X357000000Y-291000000D02*
X377000000Y-291000000D01*
X257000000Y-291000000D02*
X277000000Y-291000000D01*
D14*
X237975000Y-297025000D02*
X239000000Y-296000000D01*
X359000000Y-296000000D02*
X357975000Y-297025000D01*
X596112500Y-297025000D02*
X596000000Y-296912500D01*
D15*
X211000000Y-291175000D02*
X216996513Y-291175000D01*
D14*
X279000000Y-296000000D02*
X277975000Y-297025000D01*
X319000000Y-296000000D02*
X317975000Y-297025000D01*
D15*
X279000000Y-292000000D02*
X279000000Y-296000000D01*
X387000000Y-291000000D02*
X397000000Y-291000000D01*
X239000000Y-292000000D02*
X238000000Y-291000000D01*
X459000000Y-296000000D02*
X459000000Y-292000000D01*
X259000000Y-296000000D02*
X259000000Y-292000000D01*
D14*
X257975000Y-297025000D02*
X259000000Y-296000000D01*
D15*
X593000000Y-292000000D02*
X594000000Y-292000000D01*
X417000000Y-291000000D02*
X592000000Y-291000000D01*
D14*
X577975000Y-297025000D02*
X579000000Y-296000000D01*
D15*
X539000000Y-296000000D02*
X539000000Y-292000000D01*
D14*
X217975000Y-297025000D02*
X216112500Y-297025000D01*
D15*
X579000000Y-296000000D02*
X579000000Y-292000000D01*
X459000000Y-292000000D02*
X458000000Y-291000000D01*
X379000000Y-292000000D02*
X379000000Y-296000000D01*
X439000000Y-296000000D02*
X439000000Y-292000000D01*
X398000000Y-291000000D02*
X399000000Y-292000000D01*
D14*
X339000000Y-296000000D02*
X337975000Y-297025000D01*
D15*
X259000000Y-292000000D02*
X258000000Y-291000000D01*
D14*
X536112500Y-297025000D02*
X537975000Y-297025000D01*
D15*
X377000000Y-291000000D02*
X387000000Y-291000000D01*
X277000000Y-291000000D02*
X297000000Y-291000000D01*
X358000000Y-291000000D02*
X359000000Y-292000000D01*
%TO.N,Net-(U1-GND)*%
X212000000Y-304999898D02*
X210999898Y-304999898D01*
X291000000Y-305000000D02*
X292000000Y-304000000D01*
X386000000Y-305000000D02*
X387000000Y-304000000D01*
X372000000Y-304000000D02*
X372000000Y-299087500D01*
X351000000Y-305000000D02*
X371000000Y-305000000D01*
D14*
X589000000Y-304000000D02*
X589000000Y-305000000D01*
D15*
X552000000Y-304112500D02*
X551112500Y-305000000D01*
X351000000Y-305000000D02*
X352000000Y-304000000D01*
X232000000Y-304000000D02*
X232000000Y-299087500D01*
X512005140Y-299205052D02*
X512000000Y-299210192D01*
X551000000Y-305000000D02*
X571000000Y-305000000D01*
X512000000Y-304112500D02*
X511112500Y-305000000D01*
X311000000Y-305000000D02*
X331000000Y-305000000D01*
X591000000Y-305000000D02*
X592000000Y-304000000D01*
X387000000Y-305000000D02*
X391000000Y-305000000D01*
X271000000Y-305000000D02*
X272000000Y-304000000D01*
X212000000Y-305000000D02*
X231000000Y-305000000D01*
X311000000Y-305000000D02*
X312000000Y-304000000D01*
X471999999Y-299184488D02*
X472000000Y-304112500D01*
X331000000Y-305000000D02*
X332000000Y-304000000D01*
X210000000Y-304000000D02*
X211887500Y-302112500D01*
X391000000Y-305000000D02*
X392000000Y-304000000D01*
X252000000Y-303000000D02*
X252000000Y-299087500D01*
X250000000Y-305000000D02*
X252000000Y-303000000D01*
X551997429Y-299207622D02*
X552000000Y-299210193D01*
X512000000Y-299210192D02*
X512000000Y-304112500D01*
X472000000Y-304112500D02*
X471112500Y-305000000D01*
X571997429Y-299189629D02*
X572000000Y-299192200D01*
X210999898Y-304999898D02*
X210000000Y-304000000D01*
X371000000Y-305000000D02*
X387000000Y-305000000D01*
X431000000Y-305000000D02*
X451000000Y-305000000D01*
X291000000Y-305000000D02*
X311000000Y-305000000D01*
X572000000Y-299192200D02*
X572000000Y-304112500D01*
X371000000Y-305000000D02*
X372000000Y-304000000D01*
X387000000Y-304000000D02*
X387000000Y-303000000D01*
X231000000Y-305000000D02*
X232000000Y-304000000D01*
X272000000Y-304000000D02*
X272000000Y-299000000D01*
X451000000Y-305000000D02*
X471000000Y-305000000D01*
X312000000Y-304000000D02*
X312000000Y-299087500D01*
X571000000Y-305000000D02*
X591000000Y-305000000D01*
X251000000Y-305000000D02*
X271000000Y-305000000D01*
D14*
X588250000Y-303250000D02*
X589000000Y-304000000D01*
D15*
X331000000Y-305000000D02*
X351000000Y-305000000D01*
X492000000Y-299000000D02*
X492000000Y-304112500D01*
X391000000Y-305000000D02*
X411000000Y-305000000D01*
X531997429Y-299176777D02*
X532000000Y-299179348D01*
X491000000Y-305000000D02*
X511000000Y-305000000D01*
X411000000Y-305000000D02*
X431000000Y-305000000D01*
X592000000Y-302000000D02*
X589000000Y-305000000D01*
X292000000Y-304000000D02*
X292000000Y-299087500D01*
X592000000Y-299087500D02*
X592000000Y-302000000D01*
X231000000Y-305000000D02*
X251000000Y-305000000D01*
X532000000Y-304112500D02*
X531112500Y-305000000D01*
X432000000Y-299087500D02*
X432000000Y-304112500D01*
X432000000Y-304112500D02*
X431112500Y-305000000D01*
X211887500Y-302112500D02*
X211887500Y-299183370D01*
X392000000Y-304000000D02*
X392000000Y-299087500D01*
X572000000Y-304112500D02*
X571112500Y-305000000D01*
X210000000Y-304000000D02*
X202000000Y-304000000D01*
X452000000Y-299087500D02*
X452000000Y-304112500D01*
X332000000Y-304000000D02*
X332000000Y-299087500D01*
X211887500Y-299183370D02*
X211891250Y-299179620D01*
X452000000Y-304112500D02*
X451112500Y-305000000D01*
X471000000Y-305000000D02*
X491000000Y-305000000D01*
X412000000Y-299087500D02*
X412000000Y-304112500D01*
X352000000Y-304000000D02*
X352000000Y-299087500D01*
X412000000Y-304112500D02*
X411112500Y-305000000D01*
X532000000Y-299179348D02*
X532000000Y-304112500D01*
X511000000Y-305000000D02*
X531000000Y-305000000D01*
X531000000Y-305000000D02*
X551000000Y-305000000D01*
X492000000Y-304112500D02*
X491112500Y-305000000D01*
X552000000Y-299210193D02*
X552000000Y-304112500D01*
X271000000Y-305000000D02*
X291000000Y-305000000D01*
X592000000Y-304000000D02*
X602000000Y-304000000D01*
D14*
%TO.N,Net-(U1-PIOB)*%
X202000000Y-300000000D02*
X207000000Y-300000000D01*
X220000000Y-303000000D02*
X220000000Y-299000000D01*
X209000000Y-302000000D02*
X209000000Y-303000000D01*
X220000000Y-299000000D02*
X218675000Y-297675000D01*
X207000000Y-300000000D02*
X209000000Y-302000000D01*
X218675000Y-297675000D02*
X216112500Y-297675000D01*
%TO.N,Net-(U20-PIOA)*%
X597325000Y-298325000D02*
X599000000Y-300000000D01*
X599000000Y-300000000D02*
X602000000Y-300000000D01*
X596112500Y-298325000D02*
X597325000Y-298325000D01*
X590416666Y-301750000D02*
X590750000Y-301750000D01*
X588333333Y-299666667D02*
X590416666Y-301750000D01*
%TO.N,Net-(U10-PIOB)*%
X399000000Y-297664318D02*
X396123182Y-297664318D01*
X379000000Y-299000000D02*
X379000000Y-301000000D01*
X398000000Y-302000000D02*
X397000000Y-303000000D01*
X398000000Y-301000000D02*
X398000000Y-302000000D01*
X400000000Y-301000000D02*
X400000000Y-298664318D01*
X376112500Y-298325000D02*
X378325000Y-298325000D01*
X397000000Y-303000000D02*
X395000000Y-303000000D01*
X378325000Y-298325000D02*
X379000000Y-299000000D01*
X400000000Y-298664318D02*
X399000000Y-297664318D01*
%TO.N,Net-(U1-PIOA)*%
X240000000Y-301000000D02*
X240000000Y-299000000D01*
X238665113Y-297665113D02*
X236122387Y-297665113D01*
X219000000Y-301000000D02*
X219000000Y-299500000D01*
X217825000Y-298325000D02*
X216112500Y-298325000D01*
X236122387Y-297665113D02*
X236112500Y-297675000D01*
X219000000Y-299500000D02*
X217825000Y-298325000D01*
X240000000Y-299000000D02*
X238665113Y-297665113D01*
%TO.N,Net-(U2-PIOA)*%
X260000000Y-302000000D02*
X260000000Y-299000000D01*
X239000000Y-299325000D02*
X239000000Y-303000000D01*
X258675000Y-297675000D02*
X256112500Y-297675000D01*
X260000000Y-299000000D02*
X258675000Y-297675000D01*
X238000000Y-298325000D02*
X239000000Y-299325000D01*
X259000000Y-303000000D02*
X260000000Y-302000000D01*
X236112500Y-298325000D02*
X238000000Y-298325000D01*
%TO.N,Net-(U3-PIOA)*%
X280000000Y-299000000D02*
X278675000Y-297675000D01*
X280000000Y-301000000D02*
X280000000Y-299000000D01*
X258325000Y-298325000D02*
X256112500Y-298325000D01*
X259000000Y-301000000D02*
X259000000Y-299000000D01*
X278675000Y-297675000D02*
X276112500Y-297675000D01*
X259000000Y-299000000D02*
X258325000Y-298325000D01*
%TO.N,Net-(U4-PIOA)*%
X300000000Y-299000000D02*
X298675000Y-297675000D01*
X300000000Y-303000000D02*
X300000000Y-299000000D01*
X279000000Y-299000000D02*
X279000000Y-303000000D01*
X278325000Y-298325000D02*
X279000000Y-299000000D01*
X276112500Y-298325000D02*
X278325000Y-298325000D01*
X298675000Y-297675000D02*
X296112500Y-297675000D01*
%TO.N,Net-(U5-PIOA)*%
X298325000Y-298325000D02*
X299000000Y-299000000D01*
X320000000Y-301000000D02*
X320000000Y-298878908D01*
X318790840Y-297669748D02*
X316117752Y-297669748D01*
X296112500Y-298325000D02*
X298325000Y-298325000D01*
X320000000Y-298878908D02*
X318790840Y-297669748D01*
X299000000Y-299000000D02*
X299000000Y-301000000D01*
%TO.N,Net-(U6-PIOA)*%
X319000000Y-299000000D02*
X319000000Y-303000000D01*
X340286328Y-303000000D02*
X340286328Y-298961328D01*
X316112500Y-298325000D02*
X318325000Y-298325000D01*
X318325000Y-298325000D02*
X319000000Y-299000000D01*
X339000000Y-297675000D02*
X336398828Y-297675000D01*
X340286328Y-298961328D02*
X339000000Y-297675000D01*
%TO.N,Net-(U7-PIOA)*%
X358765272Y-297672558D02*
X356114942Y-297672558D01*
X338325000Y-298325000D02*
X336112500Y-298325000D01*
X339000000Y-301000000D02*
X339000000Y-299000000D01*
X339000000Y-299000000D02*
X338325000Y-298325000D01*
X360000000Y-301000000D02*
X360000000Y-298907286D01*
X360000000Y-298907286D02*
X358765272Y-297672558D01*
%TO.N,Net-(U8-PIOA)*%
X359000000Y-299000000D02*
X359000000Y-303000000D01*
X380000000Y-299000000D02*
X378679675Y-297679675D01*
X356112500Y-298325000D02*
X358325000Y-298325000D01*
X378679675Y-297679675D02*
X376117175Y-297679675D01*
X380000000Y-303000000D02*
X380000000Y-299000000D01*
X358325000Y-298325000D02*
X359000000Y-299000000D01*
%TO.N,Net-(U10-PIOA)*%
X399000000Y-299000000D02*
X399000000Y-303000000D01*
X396112500Y-298325000D02*
X398325000Y-298325000D01*
X420000000Y-303000000D02*
X420000000Y-298966249D01*
X420000000Y-298966249D02*
X418704679Y-297670928D01*
X398325000Y-298325000D02*
X399000000Y-299000000D01*
X418704679Y-297670928D02*
X416116572Y-297670928D01*
%TO.N,Net-(U11-PIOA)*%
X418325000Y-298325000D02*
X419000000Y-299000000D01*
X419000000Y-299000000D02*
X419000000Y-301000000D01*
X440000000Y-298878711D02*
X438790493Y-297669204D01*
X440000000Y-301000000D02*
X440000000Y-298878711D01*
X416112500Y-298325000D02*
X418325000Y-298325000D01*
X438790493Y-297669204D02*
X436118296Y-297669204D01*
%TO.N,Net-(U12-PIOA)*%
X460000000Y-298849959D02*
X458825041Y-297675000D01*
X438325000Y-298325000D02*
X439000000Y-299000000D01*
X439000000Y-299000000D02*
X439000000Y-303000000D01*
X436112500Y-298325000D02*
X438325000Y-298325000D01*
X460000000Y-303000000D02*
X460000000Y-298849959D01*
X458825041Y-297675000D02*
X456112500Y-297675000D01*
%TO.N,Net-(U13-PIOA)*%
X478629818Y-297669559D02*
X476117941Y-297669559D01*
X480000000Y-299039741D02*
X478629818Y-297669559D01*
X480000000Y-301000000D02*
X480000000Y-299039741D01*
X458325000Y-298325000D02*
X459000000Y-299000000D01*
X459000000Y-299000000D02*
X459000000Y-301000000D01*
X456112500Y-298325000D02*
X458325000Y-298325000D01*
%TO.N,Net-(U14-PIOA)*%
X479000000Y-299000000D02*
X479000000Y-303000000D01*
X478325000Y-298325000D02*
X479000000Y-299000000D01*
X498526423Y-297675000D02*
X496112500Y-297675000D01*
X500000000Y-299148577D02*
X498526423Y-297675000D01*
X476112500Y-298325000D02*
X478325000Y-298325000D01*
X500000000Y-303000000D02*
X500000000Y-299148577D01*
%TO.N,Net-(U15-PIOA)*%
X496112500Y-298325000D02*
X498325000Y-298325000D01*
X499000000Y-299000000D02*
X499000000Y-301000000D01*
X498325000Y-298325000D02*
X499000000Y-299000000D01*
X518665612Y-297665612D02*
X516121888Y-297665612D01*
X520000000Y-301000000D02*
X520000000Y-299000000D01*
X520000000Y-299000000D02*
X518665612Y-297665612D01*
%TO.N,Net-(U16-PIOA)*%
X519000000Y-299000000D02*
X519000000Y-303000000D01*
X540000000Y-299270681D02*
X538404319Y-297675000D01*
X540000000Y-303000000D02*
X540000000Y-299270681D01*
X538404319Y-297675000D02*
X536112500Y-297675000D01*
X518325000Y-298325000D02*
X519000000Y-299000000D01*
X516112500Y-298325000D02*
X518325000Y-298325000D01*
%TO.N,Net-(U17-PIOA)*%
X560000000Y-301000000D02*
X560000000Y-299062894D01*
X558610631Y-297673525D02*
X555870398Y-297673525D01*
X538325000Y-298325000D02*
X539000000Y-299000000D01*
X536112500Y-298325000D02*
X538325000Y-298325000D01*
X560000000Y-299062894D02*
X558610631Y-297673525D01*
X539000000Y-299000000D02*
X539000000Y-301000000D01*
%TO.N,Net-(U18-PIOA)*%
X559000000Y-299000000D02*
X559000000Y-303000000D01*
X558325000Y-298325000D02*
X559000000Y-299000000D01*
X580000000Y-303000000D02*
X580000000Y-299107547D01*
X578567453Y-297675000D02*
X576112500Y-297675000D01*
X555868923Y-298325000D02*
X558325000Y-298325000D01*
X580000000Y-299107547D02*
X578567453Y-297675000D01*
%TO.N,Net-(U19-PIOA)*%
X594000000Y-298325000D02*
X594650000Y-297675000D01*
X576112500Y-298325000D02*
X578325000Y-298325000D01*
X579000000Y-299000000D02*
X579000000Y-301000000D01*
X594000000Y-301000000D02*
X594000000Y-298325000D01*
X578325000Y-298325000D02*
X579000000Y-299000000D01*
X594650000Y-297675000D02*
X596112500Y-297675000D01*
%TD*%
M02*
