M48
; DRILL file {KiCad 9.0.4} date 2026-04-17T15:31:37-0600
; FORMAT={-:-/ absolute / metric / decimal}
; #@! TF.CreationDate,2026-04-17T15:31:37-06:00
; #@! TF.GenerationSoftware,Kicad,Pcbnew,9.0.4
; #@! TF.FileFunction,Plated,1,2,PTH
FMAT,2
METRIC
; #@! TA.AperFunction,Plated,PTH,ViaDrill
T1C0.400
; #@! TA.AperFunction,Plated,PTH,ComponentDrill
T2C1.000
%
G90
G05
T1
X209.0Y-303.0
X215.0Y-294.0
X219.0Y-301.0
X220.0Y-303.0
X231.0Y-294.0
X239.0Y-303.0
X240.0Y-301.0
X251.0Y-294.0
X259.0Y-301.0
X259.0Y-303.0
X271.113Y-294.0
X279.0Y-303.0
X280.0Y-301.0
X291.0Y-294.0
X299.0Y-301.0
X300.0Y-303.0
X311.113Y-294.044
X319.0Y-303.0
X320.0Y-301.0
X331.113Y-294.0
X339.0Y-301.0
X340.286Y-303.0
X351.0Y-294.0
X359.0Y-303.0
X360.0Y-301.0
X371.113Y-294.0
X379.0Y-301.0
X380.0Y-303.0
X391.112Y-294.0
X398.0Y-301.0
X399.0Y-303.0
X400.0Y-301.0
X411.112Y-294.0
X419.0Y-301.0
X420.0Y-303.0
X431.112Y-294.0
X439.0Y-303.0
X440.0Y-301.0
X451.112Y-294.0
X459.0Y-301.0
X460.0Y-303.0
X471.112Y-294.0
X479.0Y-303.0
X480.0Y-301.0
X491.112Y-294.0
X499.0Y-301.0
X500.0Y-303.0
X511.112Y-294.0
X519.0Y-303.0
X520.0Y-301.0
X531.112Y-294.0
X539.0Y-301.0
X540.0Y-303.0
X551.112Y-294.0
X559.0Y-303.0
X560.0Y-301.0
X571.112Y-294.0
X579.0Y-301.0
X580.0Y-303.0
X590.75Y-301.75
X591.0Y-294.0
X594.0Y-301.0
X597.0Y-294.0
T2
X202.0Y-292.0
X202.0Y-296.0
X202.0Y-300.0
X202.0Y-304.0
X602.0Y-292.0
X602.0Y-296.0
X602.0Y-300.0
X602.0Y-304.0
M30
