%TF.GenerationSoftware,KiCad,Pcbnew,9.0.4*%
%TF.CreationDate,2026-04-17T15:31:34-06:00*%
%TF.ProjectId,open-string,6f70656e-2d73-4747-9269-6e672e6b6963,rev?*%
%TF.SameCoordinates,Original*%
%TF.FileFunction,Paste,Top*%
%TF.FilePolarity,Positive*%
%FSLAX46Y46*%
G04 Gerber Fmt 4.6, Leading zero omitted, Abs format (unit mm)*
G04 Created by KiCad (PCBNEW 9.0.4) date 2026-04-17 15:31:34*
%MOMM*%
%LPD*%
G01*
G04 APERTURE LIST*
G04 Aperture macros list*
%AMRoundRect*
0 Rectangle with rounded corners*
0 $1 Rounding radius*
0 $2 $3 $4 $5 $6 $7 $8 $9 X,Y pos of 4 corners*
0 Add a 4 corners polygon primitive as box body*
4,1,4,$2,$3,$4,$5,$6,$7,$8,$9,$2,$3,0*
0 Add four circle primitives for the rounded corners*
1,1,$1+$1,$2,$3*
1,1,$1+$1,$4,$5*
1,1,$1+$1,$6,$7*
1,1,$1+$1,$8,$9*
0 Add four rect primitives between the rounded corners*
20,1,$1+$1,$2,$3,$4,$5,0*
20,1,$1+$1,$4,$5,$6,$7,0*
20,1,$1+$1,$6,$7,$8,$9,0*
20,1,$1+$1,$8,$9,$2,$3,0*%
G04 Aperture macros list end*
%ADD10RoundRect,0.100000X-0.712500X-0.100000X0.712500X-0.100000X0.712500X0.100000X-0.712500X0.100000X0*%
G04 APERTURE END LIST*
D10*
%TO.C,U10*%
X391887500Y-297025000D03*
X391887500Y-297675000D03*
X391887500Y-298325000D03*
X391887500Y-298975000D03*
X396112500Y-298975000D03*
X396112500Y-298325000D03*
X396112500Y-297675000D03*
X396112500Y-297025000D03*
%TD*%
%TO.C,U14*%
X471887500Y-297025000D03*
X471887500Y-297675000D03*
X471887500Y-298325000D03*
X471887500Y-298975000D03*
X476112500Y-298975000D03*
X476112500Y-298325000D03*
X476112500Y-297675000D03*
X476112500Y-297025000D03*
%TD*%
%TO.C,U1*%
X211887500Y-297025000D03*
X211887500Y-297675000D03*
X211887500Y-298325000D03*
X211887500Y-298975000D03*
X216112500Y-298975000D03*
X216112500Y-298325000D03*
X216112500Y-297675000D03*
X216112500Y-297025000D03*
%TD*%
%TO.C,U5*%
X291887500Y-297025000D03*
X291887500Y-297675000D03*
X291887500Y-298325000D03*
X291887500Y-298975000D03*
X296112500Y-298975000D03*
X296112500Y-298325000D03*
X296112500Y-297675000D03*
X296112500Y-297025000D03*
%TD*%
%TO.C,U18*%
X551887500Y-297025000D03*
X551887500Y-297675000D03*
X551887500Y-298325000D03*
X551887500Y-298975000D03*
X556112500Y-298975000D03*
X556112500Y-298325000D03*
X556112500Y-297675000D03*
X556112500Y-297025000D03*
%TD*%
%TO.C,U2*%
X231887500Y-297025000D03*
X231887500Y-297675000D03*
X231887500Y-298325000D03*
X231887500Y-298975000D03*
X236112500Y-298975000D03*
X236112500Y-298325000D03*
X236112500Y-297675000D03*
X236112500Y-297025000D03*
%TD*%
%TO.C,U9*%
X371887500Y-297025000D03*
X371887500Y-297675000D03*
X371887500Y-298325000D03*
X371887500Y-298975000D03*
X376112500Y-298975000D03*
X376112500Y-298325000D03*
X376112500Y-297675000D03*
X376112500Y-297025000D03*
%TD*%
%TO.C,U12*%
X431887500Y-297025000D03*
X431887500Y-297675000D03*
X431887500Y-298325000D03*
X431887500Y-298975000D03*
X436112500Y-298975000D03*
X436112500Y-298325000D03*
X436112500Y-297675000D03*
X436112500Y-297025000D03*
%TD*%
%TO.C,U20*%
X591887500Y-297025000D03*
X591887500Y-297675000D03*
X591887500Y-298325000D03*
X591887500Y-298975000D03*
X596112500Y-298975000D03*
X596112500Y-298325000D03*
X596112500Y-297675000D03*
X596112500Y-297025000D03*
%TD*%
%TO.C,U4*%
X271887500Y-297025000D03*
X271887500Y-297675000D03*
X271887500Y-298325000D03*
X271887500Y-298975000D03*
X276112500Y-298975000D03*
X276112500Y-298325000D03*
X276112500Y-297675000D03*
X276112500Y-297025000D03*
%TD*%
%TO.C,U19*%
X571887500Y-297025000D03*
X571887500Y-297675000D03*
X571887500Y-298325000D03*
X571887500Y-298975000D03*
X576112500Y-298975000D03*
X576112500Y-298325000D03*
X576112500Y-297675000D03*
X576112500Y-297025000D03*
%TD*%
%TO.C,U13*%
X451887500Y-297025000D03*
X451887500Y-297675000D03*
X451887500Y-298325000D03*
X451887500Y-298975000D03*
X456112500Y-298975000D03*
X456112500Y-298325000D03*
X456112500Y-297675000D03*
X456112500Y-297025000D03*
%TD*%
%TO.C,U8*%
X351887500Y-297025000D03*
X351887500Y-297675000D03*
X351887500Y-298325000D03*
X351887500Y-298975000D03*
X356112500Y-298975000D03*
X356112500Y-298325000D03*
X356112500Y-297675000D03*
X356112500Y-297025000D03*
%TD*%
%TO.C,U6*%
X311887500Y-297025000D03*
X311887500Y-297675000D03*
X311887500Y-298325000D03*
X311887500Y-298975000D03*
X316112500Y-298975000D03*
X316112500Y-298325000D03*
X316112500Y-297675000D03*
X316112500Y-297025000D03*
%TD*%
%TO.C,U16*%
X511887500Y-297025000D03*
X511887500Y-297675000D03*
X511887500Y-298325000D03*
X511887500Y-298975000D03*
X516112500Y-298975000D03*
X516112500Y-298325000D03*
X516112500Y-297675000D03*
X516112500Y-297025000D03*
%TD*%
%TO.C,U7*%
X331887500Y-297025000D03*
X331887500Y-297675000D03*
X331887500Y-298325000D03*
X331887500Y-298975000D03*
X336112500Y-298975000D03*
X336112500Y-298325000D03*
X336112500Y-297675000D03*
X336112500Y-297025000D03*
%TD*%
%TO.C,U3*%
X251887500Y-297025000D03*
X251887500Y-297675000D03*
X251887500Y-298325000D03*
X251887500Y-298975000D03*
X256112500Y-298975000D03*
X256112500Y-298325000D03*
X256112500Y-297675000D03*
X256112500Y-297025000D03*
%TD*%
%TO.C,U15*%
X491887500Y-297025000D03*
X491887500Y-297675000D03*
X491887500Y-298325000D03*
X491887500Y-298975000D03*
X496112500Y-298975000D03*
X496112500Y-298325000D03*
X496112500Y-297675000D03*
X496112500Y-297025000D03*
%TD*%
%TO.C,U11*%
X411887500Y-297025000D03*
X411887500Y-297675000D03*
X411887500Y-298325000D03*
X411887500Y-298975000D03*
X416112500Y-298975000D03*
X416112500Y-298325000D03*
X416112500Y-297675000D03*
X416112500Y-297025000D03*
%TD*%
%TO.C,U17*%
X531887500Y-297025000D03*
X531887500Y-297675000D03*
X531887500Y-298325000D03*
X531887500Y-298975000D03*
X536112500Y-298975000D03*
X536112500Y-298325000D03*
X536112500Y-297675000D03*
X536112500Y-297025000D03*
%TD*%
M02*
