%TF.GenerationSoftware,KiCad,Pcbnew,9.0.4*%
%TF.CreationDate,2026-04-17T15:31:37-06:00*%
%TF.ProjectId,open-string,6f70656e-2d73-4747-9269-6e672e6b6963,rev?*%
%TF.SameCoordinates,Original*%
%TF.FileFunction,Drillmap*%
%TF.FilePolarity,Positive*%
%FSLAX45Y45*%
G04 Gerber Fmt 4.5, Leading zero omitted, Abs format (unit mm)*
G04 Created by KiCad (PCBNEW 9.0.4) date 2026-04-17 15:31:37*
%MOMM*%
%LPD*%
G01*
G04 APERTURE LIST*
%ADD10C,0.100000*%
%ADD11C,0.200000*%
G04 APERTURE END LIST*
D10*
X60200000Y-29000000D02*
X60200000Y-30600000D01*
X45300000Y-30600000D02*
X20200000Y-30600000D01*
X24577710Y-29800000D02*
G75*
G02*
X24222290Y-29800000I-177710J0D01*
G01*
X24222290Y-29800000D02*
G75*
G02*
X24577710Y-29800000I177710J0D01*
G01*
X54577792Y-29800000D02*
G75*
G02*
X54222208Y-29800000I-177792J0D01*
G01*
X54222208Y-29800000D02*
G75*
G02*
X54577792Y-29800000I177792J0D01*
G01*
X20200000Y-30600000D02*
X20200000Y-29000000D01*
X42577827Y-29800000D02*
G75*
G02*
X42222173Y-29800000I-177827J0D01*
G01*
X42222173Y-29800000D02*
G75*
G02*
X42577827Y-29800000I177827J0D01*
G01*
X20200000Y-29000000D02*
X60200000Y-29000000D01*
X34577678Y-29800000D02*
G75*
G02*
X34222322Y-29800000I-177678J0D01*
G01*
X34222322Y-29800000D02*
G75*
G02*
X34577678Y-29800000I177678J0D01*
G01*
X60200000Y-30600000D02*
X45300000Y-30600000D01*
D11*
X20455777Y-30916484D02*
X20455777Y-30716484D01*
X20455777Y-30716484D02*
X20503396Y-30716484D01*
X20503396Y-30716484D02*
X20531967Y-30726008D01*
X20531967Y-30726008D02*
X20551015Y-30745055D01*
X20551015Y-30745055D02*
X20560539Y-30764103D01*
X20560539Y-30764103D02*
X20570063Y-30802198D01*
X20570063Y-30802198D02*
X20570063Y-30830769D01*
X20570063Y-30830769D02*
X20560539Y-30868865D01*
X20560539Y-30868865D02*
X20551015Y-30887912D01*
X20551015Y-30887912D02*
X20531967Y-30906960D01*
X20531967Y-30906960D02*
X20503396Y-30916484D01*
X20503396Y-30916484D02*
X20455777Y-30916484D01*
X20655777Y-30916484D02*
X20655777Y-30783150D01*
X20655777Y-30821246D02*
X20665301Y-30802198D01*
X20665301Y-30802198D02*
X20674824Y-30792674D01*
X20674824Y-30792674D02*
X20693872Y-30783150D01*
X20693872Y-30783150D02*
X20712920Y-30783150D01*
X20779586Y-30916484D02*
X20779586Y-30783150D01*
X20779586Y-30716484D02*
X20770063Y-30726008D01*
X20770063Y-30726008D02*
X20779586Y-30735531D01*
X20779586Y-30735531D02*
X20789110Y-30726008D01*
X20789110Y-30726008D02*
X20779586Y-30716484D01*
X20779586Y-30716484D02*
X20779586Y-30735531D01*
X20903396Y-30916484D02*
X20884348Y-30906960D01*
X20884348Y-30906960D02*
X20874824Y-30887912D01*
X20874824Y-30887912D02*
X20874824Y-30716484D01*
X21008158Y-30916484D02*
X20989110Y-30906960D01*
X20989110Y-30906960D02*
X20979586Y-30887912D01*
X20979586Y-30887912D02*
X20979586Y-30716484D01*
X21236729Y-30916484D02*
X21236729Y-30716484D01*
X21236729Y-30716484D02*
X21303396Y-30859341D01*
X21303396Y-30859341D02*
X21370063Y-30716484D01*
X21370063Y-30716484D02*
X21370063Y-30916484D01*
X21551015Y-30916484D02*
X21551015Y-30811722D01*
X21551015Y-30811722D02*
X21541491Y-30792674D01*
X21541491Y-30792674D02*
X21522444Y-30783150D01*
X21522444Y-30783150D02*
X21484348Y-30783150D01*
X21484348Y-30783150D02*
X21465301Y-30792674D01*
X21551015Y-30906960D02*
X21531967Y-30916484D01*
X21531967Y-30916484D02*
X21484348Y-30916484D01*
X21484348Y-30916484D02*
X21465301Y-30906960D01*
X21465301Y-30906960D02*
X21455777Y-30887912D01*
X21455777Y-30887912D02*
X21455777Y-30868865D01*
X21455777Y-30868865D02*
X21465301Y-30849817D01*
X21465301Y-30849817D02*
X21484348Y-30840293D01*
X21484348Y-30840293D02*
X21531967Y-30840293D01*
X21531967Y-30840293D02*
X21551015Y-30830769D01*
X21646253Y-30783150D02*
X21646253Y-30983150D01*
X21646253Y-30792674D02*
X21665301Y-30783150D01*
X21665301Y-30783150D02*
X21703396Y-30783150D01*
X21703396Y-30783150D02*
X21722444Y-30792674D01*
X21722444Y-30792674D02*
X21731967Y-30802198D01*
X21731967Y-30802198D02*
X21741491Y-30821246D01*
X21741491Y-30821246D02*
X21741491Y-30878388D01*
X21741491Y-30878388D02*
X21731967Y-30897436D01*
X21731967Y-30897436D02*
X21722444Y-30906960D01*
X21722444Y-30906960D02*
X21703396Y-30916484D01*
X21703396Y-30916484D02*
X21665301Y-30916484D01*
X21665301Y-30916484D02*
X21646253Y-30906960D01*
X21827205Y-30897436D02*
X21836729Y-30906960D01*
X21836729Y-30906960D02*
X21827205Y-30916484D01*
X21827205Y-30916484D02*
X21817682Y-30906960D01*
X21817682Y-30906960D02*
X21827205Y-30897436D01*
X21827205Y-30897436D02*
X21827205Y-30916484D01*
X21827205Y-30792674D02*
X21836729Y-30802198D01*
X21836729Y-30802198D02*
X21827205Y-30811722D01*
X21827205Y-30811722D02*
X21817682Y-30802198D01*
X21817682Y-30802198D02*
X21827205Y-30792674D01*
X21827205Y-30792674D02*
X21827205Y-30811722D01*
M02*
